<svg xmlns="http://www.w3.org/2000/svg" viewBox="0 0 547.17 345.79"><defs><style>.cls-1{fill:#92e3a9;}.cls-2,.cls-5,.cls-6,.cls-7,.cls-9{fill:#fff;}.cls-2{opacity:0.8;}.cls-3{fill:none;stroke:#263238;stroke-miterlimit:10;}.cls-4{fill:#263238;}.cls-5{opacity:0.31;}.cls-6{opacity:0.5;}.cls-7{opacity:0.33;}.cls-8{fill:#2b945b;}</style></defs><g id="Layer_2" data-name="Layer 2"><g id="Trees_1" data-name="Trees 1"><path class="cls-1" d="M534.09,119.77c-6.22-22.39-47.68,2-47.68,2l10.85-19.67a43.66,43.66,0,0,0,3.44-6.24c5.44-12.18,5.37-25.22,0-36.57-1.49-6.89-6-16.74-18.4-27.53C458.77,11.3,380-2.67,357.2.43s20.73,12.7,20.73,12.7l-3.45,0C308.07,6.05,241.25,5.15,175,6.52c-16.62.35-33.3.89-49.57,3.7-4.69.81-9.72,2-12.51,5.82-12.38,16.78,38.25,18.42,46.19,18.1C124.29,38.66,85.65,40,53.31,53.48c-4.51,1.88-9,4.1-12.38,7.57s-5.62,8.39-4.85,13.34c2.22,14.36,22,18.62,33.23,21.8,0,0-64.49,42.89-56.89,64.65a76.2,76.2,0,0,0,16.5,27.8,107.5,107.5,0,0,0-12.67,19.62c-2.06,4.21-4.76,10-2.45,14.83,11.74,24.72,189.88,109.58,332.63,85.36,37.92-6.43,75.69-17.07,108.93-35.89,33.08-18.72,66.79-49.65,75.13-88.66.27-1.28.47-2.53.61-3.74C536.27,162.18,539.29,138.51,534.09,119.77Z"/><path class="cls-2" d="M534.09,119.77c-6.22-22.39-47.68,2-47.68,2l10.85-19.67a43.66,43.66,0,0,0,3.44-6.24c5.44-12.18,5.37-25.22,0-36.57-1.49-6.89-6-16.74-18.4-27.53C458.77,11.3,380-2.67,357.2.43s20.73,12.7,20.73,12.7l-3.45,0C308.07,6.05,241.25,5.15,175,6.52c-16.62.35-33.3.89-49.57,3.7-4.69.81-9.72,2-12.51,5.82-12.38,16.78,38.25,18.42,46.19,18.1C124.29,38.66,85.65,40,53.31,53.48c-4.51,1.88-9,4.1-12.38,7.57s-4.73,8.33-4.85,13.34c-.31,13.24,21,18.15,33.23,21.8,0,0-64.49,42.89-56.89,64.65a76.2,76.2,0,0,0,16.5,27.8,107.5,107.5,0,0,0-12.67,19.62c-2.06,4.21-4.76,10-2.45,14.83,11.74,24.72,189.88,109.58,332.63,85.36,37.92-6.43,75.69-17.07,108.93-35.89,33.08-18.72,66.79-49.65,75.13-88.66.27-1.28.47-2.53.61-3.74C536.27,162.18,539.29,138.51,534.09,119.77Z"/><path class="cls-3" d="M418.69,95.3s.81-2.42,4.83-3.22,8.86,3.62,8.86,3.62,3.22-6.44,6.44-6.84,6.85,2.41,6.85,2.41"/><path class="cls-3" d="M408.22,110.6s.81-2.42,4.83-3.22,8.86,3.62,8.86,3.62,3.22-6.44,6.44-6.84,6.85,2.41,6.85,2.41"/><path class="cls-3" d="M446.47,110.7s.62-1.84,3.68-2.46,6.74,2.76,6.74,2.76,2.46-4.9,4.91-5.21,5.21,1.84,5.21,1.84"/><path class="cls-3" d="M491.21,126.91a3,3,0,0,1,2.42-1.61c2-.4,4.42,1.81,4.42,1.81s1.61-3.22,3.21-3.42a5.66,5.66,0,0,1,3.42,1.21"/><path class="cls-3" d="M276.78,91c-4.16-18.69-25.71-32.62-44.49-29.95a23.45,23.45,0,0,0-12.75,5.65c-4.79,4.41-3.66,9.42-6,14.89a5.1,5.1,0,0,1-3.58,3.14c-4.67.8-8.43-3.85-13.16-3.89-3.54,0-8.06,1.93-10,5-1.84,2.84-.56,7.8-3.86,9.69-3.7,2.11-8.2-1.91-12.19-.45-5,1.8-2.71,5.41-4.52,7.67s-5.41,1.36-10.38.9-9,5.42-9,5.42H303.42s1.35-2.26-4.52-11.28-14-2.71-17.6-2.71S276.78,91,276.78,91Z"/><path class="cls-3" d="M320.41,61c-1.67-7.5-10.31-13.09-17.85-12a9.42,9.42,0,0,0-5.11,2.27C295.52,53,296,55,295,57.23a2.08,2.08,0,0,1-1.44,1.27c-1.87.32-3.38-1.55-5.28-1.57a5.12,5.12,0,0,0-4,2c-.74,1.14-.23,3.13-1.55,3.89-1.49.85-3.29-.76-4.89-.18-2,.73-1.09,2.17-1.81,3.08s-2.18.54-4.17.36-3.62,2.18-3.62,2.18H331.1s.54-.91-1.81-4.53-5.62-1.09-7.07-1.09S320.41,61,320.41,61Z"/><path class="cls-3" d="M454.49,152.91c-1.67-7.49-10.31-13.08-17.85-12a9.44,9.44,0,0,0-5.11,2.26c-1.93,1.77-1.47,3.78-2.42,6a2,2,0,0,1-1.44,1.26c-1.87.32-3.38-1.55-5.28-1.56a5.09,5.09,0,0,0-4,2c-.74,1.14-.23,3.13-1.55,3.89-1.48.84-3.29-.77-4.89-.19-2,.73-1.09,2.18-1.81,3.08s-2.18.55-4.17.37-3.62,2.17-3.62,2.17h62.85s.54-.91-1.81-4.53-5.62-1.09-7.07-1.09S454.49,152.92,454.49,152.91Z"/><path class="cls-3" d="M353.68,144.71c-2.56-11.49-15.8-20.05-27.34-18.41a14.54,14.54,0,0,0-7.84,3.47c-2.94,2.72-2.24,5.79-3.7,9.15a3.17,3.17,0,0,1-2.2,1.94c-2.87.49-5.18-2.37-8.09-2.39a7.81,7.81,0,0,0-6.16,3.06c-1.13,1.74-.34,4.79-2.38,5.95-2.27,1.3-5-1.17-7.49-.27-3.05,1.1-1.66,3.32-2.77,4.71s-3.33.83-6.38.56-5.55,3.33-5.55,3.33h96.27s.83-1.39-2.78-6.94-8.6-1.66-10.82-1.66S353.68,144.71,353.68,144.71Z"/><path class="cls-4" d="M376.32,277.05s-5.75-6-4.14-5.78,4.64,4.64,4.64,4.64,0-9.83,1.48-7.68S378,276,378,276s4.1-6.41,4.09-5.36c0,3.23-3.16,5.77-3.16,5.77s6.57-4.87,5.5-2.9-5.28,3.84-5.28,3.84,7.57-1.53,4.88-.45-5.25,1.82-5.25,1.82h-2.1s-7.15-3.59-4.46-3.06A13.39,13.39,0,0,1,376.32,277.05Z"/><path class="cls-4" d="M452.31,258.39s-4.48-4.64-3.22-4.5,3.61,3.61,3.61,3.61,0-7.64,1.15-6-.26,6-.26,6,3.19-5,3.19-4.17c0,2.51-2.46,4.48-2.46,4.48s5.11-3.78,4.27-2.25-4.11,3-4.11,3,5.9-1.19,3.81-.35-4.09,1.41-4.09,1.41h-1.63s-5.57-2.79-3.47-2.37A10.6,10.6,0,0,1,452.31,258.39Z"/><path class="cls-4" d="M522.86,241.75s-4.48-4.64-3.22-4.5,3.6,3.61,3.6,3.61,0-7.65,1.15-6-.25,6-.25,6,3.19-5,3.19-4.17c0,2.52-2.47,4.49-2.47,4.49s5.12-3.79,4.28-2.25-4.11,3-4.11,3,5.9-1.19,3.8-.35-4.08,1.41-4.08,1.41h-1.63s-5.57-2.79-3.48-2.38A10.42,10.42,0,0,1,522.86,241.75Z"/><path class="cls-1" d="M433,279.77s-5.35-5.55-3.85-5.38,4.31,4.31,4.31,4.31,0-9.13,1.37-7.13-.3,7.17-.3,7.17,3.81-5.95,3.8-5c0,3-2.94,5.36-2.94,5.36s6.11-4.53,5.11-2.69-4.9,3.57-4.9,3.57,7-1.42,4.54-.42-4.89,1.69-4.89,1.69h-1.94s-6.65-3.34-4.15-2.84A12.38,12.38,0,0,1,433,279.77Z"/><polyline class="cls-3" points="327.1 255.72 279.77 202.67 269.41 210.96 217.53 132.84 172.36 142.91 158.85 117.68 145.72 116.99 120.85 67.93 83.64 101.88 65.71 95.47 0.36 162.1"/><line class="cls-3" x1="335.97" y1="265.67" x2="331.01" y2="260.11"/><line class="cls-3" x1="148.11" y1="149.4" x2="144.2" y2="150.45"/><line class="cls-3" x1="172.27" y1="142.85" x2="152.51" y2="148.2"/><polyline class="cls-3" points="97.74 120.14 108.8 103.81 108.05 98.21 120.75 72.44"/><line class="cls-3" x1="93.12" y1="126.97" x2="95.89" y2="122.87"/><line class="cls-3" x1="75.95" y1="136.63" x2="58.01" y2="160.95"/><polyline class="cls-3" points="66.6 98.21 71.08 108.29 81.17 116.51 80.04 131.07 77.6 134.39"/><polyline class="cls-3" points="158.85 117.68 149.51 126.59 146.15 120.99"/><polyline class="cls-3" points="536.32 217.5 463.7 166.28 441.65 197.4 414.42 188.32 372.28 247.32 345.05 241.49 331.43 253.16"/><polyline class="cls-3" points="463.7 166.28 455.07 204.23 444.88 199.77"/><polyline class="cls-3" points="414.66 190.55 393.34 252.59 378.7 250.05"/><path class="cls-1" d="M413.67,186.11a34.1,34.1,0,0,0-34.21,34,33.7,33.7,0,0,0,8.71,22.65,26.07,26.07,0,0,1,12,1.09,32.79,32.79,0,0,1,11.64,6.8h3.07a32.81,32.81,0,0,1,11.63-6.8,26.21,26.21,0,0,1,12.6-1,33.69,33.69,0,0,0,8.8-22.74A34.11,34.11,0,0,0,413.67,186.11Z"/><path class="cls-4" d="M429.6,233.73c-1.05.51-2.1,1-3.13,1.58a32.44,32.44,0,0,0-3,1.85c-.35.24-.7.5-1.05.76l5.6-10.44-7.69,12c-.78.63-1.54,1.27-2.29,1.92-1.25,1.08-2.45,2.18-3.64,3.32L414,233.43l8.05-12.25L414,231.72l-.35-10.14L413,232.92h0l-.58,11.38c-1-1-2.07-1.93-3.14-2.86-.84-.73-1.7-1.45-2.58-2.15l-7.28-12.43,5.35,11-.93-.66a32.44,32.44,0,0,0-3-1.85c-1-.55-2.07-1.07-3.12-1.58a64.83,64.83,0,0,0-6.48-2.74,62.52,62.52,0,0,1,6.24,3.11c1,.57,2,1.15,3,1.76a28.75,28.75,0,0,1,2.77,2,61.82,61.82,0,0,1,5,4.52c1.39,1.38,2.75,2.82,4,4.27L411.6,261H415l-.47-13.85c1.44-1.65,3-3.28,4.56-4.85a61.68,61.68,0,0,1,5-4.52,30,30,0,0,1,2.77-2c1-.61,2-1.19,3-1.76a63.62,63.62,0,0,1,6.24-3.11A65.67,65.67,0,0,0,429.6,233.73Z"/><path class="cls-1" d="M151,232.74c0,9.77-5.47,10.51-12.23,10.51s-12.23-.74-12.23-10.51,5.48-30.17,12.23-30.17S151,223,151,232.74Z"/><polygon class="cls-4" points="142.87 237.17 140.85 237.31 146.12 233.76 142.35 235.66 142.87 234.18 141.15 236.27 139.13 237.29 138.97 230.28 140.04 227.69 138.94 229.15 138.85 225.08 142.2 220.61 138.83 224.07 138.62 215.12 138.44 220.84 136.29 218.45 138.41 221.94 138.12 231.02 136.25 229.79 134.55 226.77 135.23 229.13 131.88 226.94 138.08 232.28 137.14 262.06 139.7 262.06 139.16 238.45 139.75 238.06 142.87 237.17"/><path class="cls-1" d="M479.9,199.12c0,19.08-10.7,20.52-23.9,20.52s-23.9-1.44-23.9-20.52,10.7-59,23.9-59S479.9,180,479.9,199.12Z"/><path class="cls-5" d="M479.9,199.12c0,19.08-10.7,20.52-23.9,20.52s-23.9-1.44-23.9-20.52,10.7-59,23.9-59S479.9,180,479.9,199.12Z"/><polygon class="cls-4" points="464.08 207.77 460.13 208.05 470.42 201.11 463.07 204.82 464.08 201.92 460.72 206.01 456.78 208 456.46 194.3 458.55 189.23 456.41 192.09 456.23 184.14 462.78 175.41 456.19 182.16 455.79 164.68 455.43 175.87 451.23 171.18 455.37 178.02 454.81 195.74 451.15 193.35 447.82 187.44 449.15 192.05 442.61 187.77 454.73 198.22 452.89 256.4 457.88 256.4 456.83 210.27 457.98 209.5 464.08 207.77"/><path class="cls-1" d="M531.05,206.63c0,9.76-5.48,10.5-12.23,10.5s-12.23-.74-12.23-10.5,5.48-30.18,12.23-30.18S531.05,196.86,531.05,206.63Z"/><path class="cls-6" d="M531.05,206.63c0,9.76-5.48,10.5-12.23,10.5s-12.23-.74-12.23-10.5,5.48-30.18,12.23-30.18S531.05,196.86,531.05,206.63Z"/><polygon class="cls-4" points="522.96 211.06 520.93 211.2 526.2 207.65 522.44 209.55 522.96 208.06 521.24 210.16 519.22 211.18 519.06 204.16 520.13 201.57 519.03 203.03 518.94 198.96 522.29 194.49 518.91 197.95 518.71 189 518.53 194.73 516.38 192.33 518.5 195.83 518.21 204.9 516.34 203.68 514.63 200.65 515.32 203.01 511.97 200.82 518.17 206.17 517.23 235.94 519.78 235.94 519.24 212.34 519.83 211.94 522.96 211.06"/><path class="cls-1" d="M32.56,198.37c0,9.76-5.48,10.5-12.23,10.5S8.1,208.13,8.1,198.37s5.47-30.17,12.23-30.17S32.56,188.61,32.56,198.37Z"/><path class="cls-6" d="M32.56,198.37c0,9.76-5.48,10.5-12.23,10.5S8.1,208.13,8.1,198.37s5.47-30.17,12.23-30.17S32.56,188.61,32.56,198.37Z"/><polygon class="cls-4" points="24.46 202.8 22.44 202.94 27.71 199.39 23.94 201.29 24.46 199.8 22.74 201.9 20.72 202.92 20.56 195.91 21.63 193.31 20.54 194.77 20.44 190.71 23.8 186.24 20.42 189.69 20.22 180.74 20.04 186.47 17.89 184.07 20 187.57 19.71 196.64 17.84 195.42 16.14 192.4 16.82 194.75 13.47 192.56 19.67 197.91 18.73 227.69 21.29 227.69 20.75 204.08 21.34 203.68 24.46 202.8"/><path class="cls-1" d="M93.16,176.23a34.1,34.1,0,0,0-34.22,34,33.75,33.75,0,0,0,8.71,22.65,26.1,26.1,0,0,1,12,1.09,33,33,0,0,1,11.64,6.8h3.06A32.9,32.9,0,0,1,106,234a26,26,0,0,1,12.6-1,33.73,33.73,0,0,0,8.79-22.75A34.09,34.09,0,0,0,93.16,176.23Z"/><path class="cls-7" d="M93.16,176.23a34.1,34.1,0,0,0-34.22,34,33.75,33.75,0,0,0,8.71,22.65,26.1,26.1,0,0,1,12,1.09,33,33,0,0,1,11.64,6.8h3.06A32.9,32.9,0,0,1,106,234a26,26,0,0,1,12.6-1,33.73,33.73,0,0,0,8.79-22.75A34.09,34.09,0,0,0,93.16,176.23Z"/><path class="cls-4" d="M109.09,223.84c-1.06.51-2.1,1-3.13,1.59a30.32,30.32,0,0,0-3,1.84l-1.06.76,5.61-10.44-7.69,12c-.78.63-1.55,1.27-2.3,1.92q-1.86,1.62-3.63,3.32l-.39-11.33,8-12.25-8.1,10.54-.35-10.14L92.52,223h0l-.58,11.37c-1-1-2.07-1.92-3.14-2.86-.85-.73-1.71-1.45-2.59-2.15L78.94,217l5.34,11-.92-.67a30.32,30.32,0,0,0-3-1.84c-1-.55-2.08-1.08-3.13-1.59a64.66,64.66,0,0,0-6.47-2.74A65.93,65.93,0,0,1,77,224.21c1,.57,2,1.16,3,1.76a30.15,30.15,0,0,1,2.77,2,58.18,58.18,0,0,1,5,4.52c1.4,1.38,2.75,2.81,4,4.26l-.73,14.43h3.37L94,237.31c1.45-1.66,3-3.29,4.56-4.85a58.31,58.31,0,0,1,5-4.52,28.84,28.84,0,0,1,2.77-2c1-.6,2-1.19,3-1.76a64.76,64.76,0,0,1,6.24-3.11A63.69,63.69,0,0,0,109.09,223.84Z"/><path class="cls-8" d="M188.16,277.64V246.33H147.4V226.28l35-82.83h29.82v83.33H225.1v19.55H212.18v31.31Zm-20.55-50.86h20.55v-57Z"/><path class="cls-8" d="M273.14,277.71q-12.09,0-20-5a30.88,30.88,0,0,1-11.93-13.67,47.91,47.91,0,0,1-4-20.12V178.81A51.73,51.73,0,0,1,241,158.18a29.66,29.66,0,0,1,11.76-13.83q7.95-5,20.37-5,12.27,0,20.13,5A29.84,29.84,0,0,1,305,158.18a51.91,51.91,0,0,1,3.81,20.63V239a47.91,47.91,0,0,1-4,20.12,30.88,30.88,0,0,1-11.93,13.67Q284.91,277.72,273.14,277.71Zm0-22.53c3,0,5.14-.94,6.47-2.82a16.28,16.28,0,0,0,2.65-6.71,43.18,43.18,0,0,0,.66-7.2V179.3a52.45,52.45,0,0,0-.58-7.62,16,16,0,0,0-2.57-6.87q-2-2.9-6.63-2.9c-3.09,0-5.33,1-6.7,2.9a15.38,15.38,0,0,0-2.66,6.87,53.89,53.89,0,0,0-.58,7.62v59.15a42.21,42.21,0,0,0,.67,7.2,15,15,0,0,0,2.81,6.71A7.62,7.62,0,0,0,273.14,255.18Z"/><path class="cls-8" d="M363.43,277.64V246.33H322.68V226.28l35-82.83h29.81v83.33h12.93v19.55H387.45v31.31Zm-20.54-50.86h20.54v-57Z"/><path class="cls-9" d="M546.65,212.92c-51.59,33.82-153.48,56.84-270.76,56.84-120.87,0-225.41-24.45-275.37-60v136H546.65Z"/><path class="cls-3" d="M535.45,219.67c-54.31,30.1-150.26,50.09-259.56,50.09-120.87,0-225.41-24.45-275.37-60"/><path class="cls-3" d="M546.89,212.77q-3.48,2.29-7.28,4.52"/><path class="cls-1" d="M517.19,209.86c0,19.95-11.19,21.46-25,21.46s-25-1.51-25-21.46,11.18-61.66,25-61.66S517.19,189.91,517.19,209.86Z"/><polygon class="cls-4" points="500.65 218.91 496.52 219.19 507.29 211.94 499.6 215.82 500.65 212.79 497.14 217.07 493.01 219.15 492.69 204.82 494.87 199.52 492.63 202.5 492.44 194.2 499.29 185.07 492.4 192.13 491.98 173.84 491.61 185.54 487.22 180.65 491.54 187.79 490.95 206.33 487.13 203.83 483.64 197.65 485.04 202.46 478.2 197.99 490.87 208.92 488.95 269.76 494.17 269.76 493.07 221.52 494.27 220.71 500.65 218.91"/><path class="cls-4" d="M490.52,270.3s-9.22-9.56-6.63-9.27,7.43,7.43,7.43,7.43.07-15.75,2.37-12.3-.53,12.37-.53,12.37,6.58-10.26,6.56-8.59c0,5.19-5.06,9.24-5.06,9.24s10.53-7.8,8.8-4.64S495,270.7,495,270.7s12.14-2.45,7.83-.73-8.42,2.92-8.42,2.92h-3.35s-11.47-5.76-7.16-4.89A21.32,21.32,0,0,1,490.52,270.3Z"/><path class="cls-4" d="M45.23,253.61s-8-8.26-5.74-8S45.92,252,45.92,252s.06-13.63,2-10.64-.46,10.69-.46,10.69,5.69-8.87,5.68-7.42c0,4.48-4.38,8-4.38,8s9.11-6.75,7.61-4S49.11,254,49.11,254s10.5-2.12,6.77-.62-7.29,2.51-7.29,2.51h-2.9s-9.92-5-6.18-4.23A18.64,18.64,0,0,1,45.23,253.61Z"/><path class="cls-1" d="M74.06,194.16c0,20-11.2,21.48-25,21.48s-25-1.5-25-21.48,11.2-61.72,25-61.72S74.06,174.19,74.06,194.16Z"/><polygon class="cls-4" points="57.51 203.23 53.37 203.51 64.14 196.25 56.45 200.14 57.51 197.1 53.99 201.38 49.86 203.47 49.53 189.13 51.72 183.82 49.48 186.8 49.29 178.49 56.14 169.35 49.24 176.41 48.82 158.11 48.45 169.82 44.05 164.92 48.38 172.07 47.8 190.63 43.97 188.13 40.48 181.94 41.88 186.76 35.03 182.28 47.71 193.22 45.79 254.13 51.02 254.13 49.91 205.84 51.12 205.03 57.51 203.23"/></g></g></svg>