<svg xmlns="http://www.w3.org/2000/svg" xmlns:xlink="http://www.w3.org/1999/xlink" viewBox="0 0 962.28 292.09"><defs><style>.cls-1{fill:#009245;}.cls-2{fill:url(#linear-gradient);}</style><linearGradient id="linear-gradient" y1="153.36" x2="196.8" y2="153.36" gradientUnits="userSpaceOnUse"><stop offset="0" stop-color="#39b54a"/><stop offset="0.04" stop-color="#25a948"/><stop offset="0.08" stop-color="#149f47"/><stop offset="0.14" stop-color="#099746"/><stop offset="0.22" stop-color="#029345"/><stop offset="0.43" stop-color="#009245"/><stop offset="0.72" stop-color="#029345"/><stop offset="0.82" stop-color="#099746"/><stop offset="0.89" stop-color="#149f47"/><stop offset="0.95" stop-color="#25a948"/><stop offset="1" stop-color="#39b54a"/></linearGradient></defs><g id="Layer_2" data-name="Layer 2"><g id="Layer_1-2" data-name="Layer 1"><path class="cls-1" d="M277.08,133.81l-1.72-8.43h-.58c-6.21,7.42-15,10.35-24.56,10.35-17.82,0-29.34-13.35-29.34-29.27,0-25.08,22.6-35.86,51.17-35.95V69.4c0-4.24-3.45-8.33-14.45-8.33A51.62,51.62,0,0,0,233,67.67l-5.72-21.06c5.89-3.14,18.77-8.2,36.69-8.2,32.3,0,41,19.49,41,41.23v31.8c0,8.8.48,17.1,1.52,22.37Zm-4-43.18c-12.34.09-20.48,3.81-20.48,12.5,0,6.58,4.15,9.62,9.17,9.62a11.65,11.65,0,0,0,10.84-7.7,16.42,16.42,0,0,0,.47-4.5Z"/><path class="cls-1" d="M405.63,40.33c-.47,6.9-.85,15.66-.85,29.13v51.87c0,17-3.49,31.23-13.85,40.43C381.22,170.1,368.17,173,353.46,173c-11.63,0-23.29-2.12-31.6-6.16l6-24.82a55.27,55.27,0,0,0,24.24,5.9c12.42,0,20.3-7.24,20.3-20.84V123h-.38c-4.93,6.62-12.78,9.86-21.23,9.86-22.9,0-36.51-20.21-36.51-45.24,0-29.54,17.28-49.2,39.38-49.2,9.86,0,17.3,3.94,22,11.63h.38l1.22-9.71ZM372,77.88a21.76,21.76,0,0,0-.64-5.14c-1.35-5.64-5.13-8.93-10.19-8.93-8.17,0-13.92,8.91-13.92,23.23,0,12.83,5.19,21.51,13.75,21.51a10.46,10.46,0,0,0,10.17-7.68,24.47,24.47,0,0,0,.83-7Z"/><path class="cls-1" d="M417.92,71.35c0-13.37-.28-22.72-.76-31h28.07l1.32,15.79h.76c4.85-13,15.36-17.71,22.83-17.71a27.11,27.11,0,0,1,6.67.57V70.15a37.37,37.37,0,0,0-8.05-.78c-8.11,0-15,3.42-17.26,11.44a28.15,28.15,0,0,0-.74,7v46H417.92Z"/><path class="cls-1" d="M570.77,86.29c0,35.8-24,49.44-46.59,49.44-27,0-46.18-18-46.18-48.08,0-30.76,19.31-49.24,47.46-49.24C553.27,38.41,570.77,58.17,570.77,86.29ZM511.46,87c0,14.65,4,25.21,13.49,25.21,8.27,0,12.36-10.72,12.36-25.21,0-12.75-3.49-25-12.54-25C514.66,61.94,511.46,74.73,511.46,87Z"/><path class="cls-1" d="M598.7,0V50h.37a23.92,23.92,0,0,1,12.37-11.72A46.32,46.32,0,0,1,630,34.67a43.82,43.82,0,0,1,19.58,4.12,40,40,0,0,1,13.87,11.15,49.53,49.53,0,0,1,8.34,16.21,66.41,66.41,0,0,1,2.81,19.49,68.35,68.35,0,0,1-2.72,19.49,45.91,45.91,0,0,1-8.24,16,38.86,38.86,0,0,1-13.87,10.77,44.92,44.92,0,0,1-19.4,3.94,47.78,47.78,0,0,1-8-.75,43.8,43.8,0,0,1-8.72-2.44,33.81,33.81,0,0,1-8.15-4.59,25.65,25.65,0,0,1-6.47-7.21h-.37v12.93H582.77V0ZM656,71.31a35.94,35.94,0,0,0-5.43-11.53,26.72,26.72,0,0,0-9.37-8.06,28.6,28.6,0,0,0-13.4-3,26.3,26.3,0,0,0-22.87,11.52A35,35,0,0,0,599.73,72,56.89,56.89,0,0,0,599.82,99a34.19,34.19,0,0,0,5.35,11.72,27.25,27.25,0,0,0,9.46,8.15A29.59,29.59,0,0,0,628.69,122q8.23,0,13.77-3.19a25.6,25.6,0,0,0,8.9-8.43,36.56,36.56,0,0,0,4.87-12,63.72,63.72,0,0,0,1.5-13.87A49.39,49.39,0,0,0,656,71.31Z"/><path class="cls-1" d="M778.42,133.43q-4.12,2.43-11.43,2.44c-4.13,0-7.4-1.16-9.84-3.47s-3.66-6.09-3.66-11.34a38,38,0,0,1-15.27,11.34,52.73,52.73,0,0,1-31.3,2,28.88,28.88,0,0,1-10.21-4.69,22.49,22.49,0,0,1-6.84-8.34,28,28,0,0,1-2.53-12.46q0-8.23,2.81-13.49a24.62,24.62,0,0,1,7.4-8.53,33.92,33.92,0,0,1,10.5-5,123.72,123.72,0,0,1,12.09-2.82q6.55-1.31,12.46-2A68.88,68.88,0,0,0,743,75.24a17.19,17.19,0,0,0,7.12-3.56q2.63-2.34,2.63-6.84a15.91,15.91,0,0,0-2-8.43,13.48,13.48,0,0,0-5.06-4.87,20.38,20.38,0,0,0-6.94-2.25,51.61,51.61,0,0,0-7.59-.56q-10.11,0-16.86,3.84T707,67.09H691.09a34.37,34.37,0,0,1,3.75-15.18,28.51,28.51,0,0,1,9-10,37.89,37.89,0,0,1,12.84-5.52,67.46,67.46,0,0,1,15.46-1.69,90,90,0,0,1,13,.94,34.07,34.07,0,0,1,11.71,3.83,22.43,22.43,0,0,1,8.43,8.13c2.12,3.49,3.19,8,3.19,13.65V111a37.08,37.08,0,0,0,.65,8.23q.66,2.61,4.41,2.61a19.29,19.29,0,0,0,4.87-.75ZM752.56,83.77A19.9,19.9,0,0,1,744.69,87q-4.87,1-10.22,1.68t-10.77,1.5a39.85,39.85,0,0,0-9.75,2.7,17.7,17.7,0,0,0-7,5.31q-2.71,3.45-2.71,9.42a12.85,12.85,0,0,0,1.59,6.62,13.34,13.34,0,0,0,4.12,4.39,17.63,17.63,0,0,0,5.91,2.42,32.73,32.73,0,0,0,7.12.74,37.92,37.92,0,0,0,13.49-2.14,28.26,28.26,0,0,0,9.18-5.41,21.21,21.21,0,0,0,5.25-7.08,17.8,17.8,0,0,0,1.69-7.18Z"/><path class="cls-1" d="M830.52,146.74a103.15,103.15,0,0,1-5.53,12,32.64,32.64,0,0,1-6,8,20.26,20.26,0,0,1-7.31,4.49,28,28,0,0,1-9.27,1.41,44.35,44.35,0,0,1-5.63-.37,26.91,26.91,0,0,1-5.43-1.32V156.3a27,27,0,0,0,4.78,1.59,19.93,19.93,0,0,0,4.59.65,13.68,13.68,0,0,0,8.15-2.34,14.35,14.35,0,0,0,5-6.65l6.56-16.3L782,36.92h18l28.3,79.27h.37l27.18-79.27h16.86Z"/><path class="cls-1" d="M897.61,112.16a16.83,16.83,0,0,0,5.9,5.81,26.33,26.33,0,0,0,8.25,3.09,46.77,46.77,0,0,0,9.46.94,59.09,59.09,0,0,0,7.87-.56,29,29,0,0,0,7.59-2.06A14.27,14.27,0,0,0,942.4,115a11.71,11.71,0,0,0,2.25-7.4A10.63,10.63,0,0,0,940,98.2a39.92,39.92,0,0,0-11.71-5.15q-7-2-15.27-3.56A79,79,0,0,1,897.7,85,31.76,31.76,0,0,1,886,76.84q-4.69-5.25-4.69-14.62a23.21,23.21,0,0,1,3.28-12.56A26.83,26.83,0,0,1,893,41.14a38.68,38.68,0,0,1,11.62-4.88,53.52,53.52,0,0,1,12.83-1.59,76.23,76.23,0,0,1,15.18,1.41A35,35,0,0,1,944.93,41a25.13,25.13,0,0,1,8.52,9.37A35.4,35.4,0,0,1,957.2,65H941.27a15.21,15.21,0,0,0-7.68-12.74,23.86,23.86,0,0,0-7-2.72,36.28,36.28,0,0,0-7.78-.84,46.75,46.75,0,0,0-7.21.56,24.22,24.22,0,0,0-6.65,2A13.48,13.48,0,0,0,900,55a9.48,9.48,0,0,0-1.87,6.09,9,9,0,0,0,2.9,6.84,23,23,0,0,0,7.41,4.5,64.3,64.3,0,0,0,10.12,3q5.63,1.21,11.24,2.53a120.73,120.73,0,0,1,11.71,3.19,38.16,38.16,0,0,1,10.12,5,24.36,24.36,0,0,1,7.13,7.78,23,23,0,0,1,2.71,11.62q0,8.8-3.65,14.62a28.65,28.65,0,0,1-9.56,9.37,39.89,39.89,0,0,1-13.31,5,78.36,78.36,0,0,1-14.71,1.41,67.77,67.77,0,0,1-15.36-1.69A37.45,37.45,0,0,1,892,128.65a28.21,28.21,0,0,1-9-10.12,35,35,0,0,1-3.75-15.27h15.93A17.84,17.84,0,0,0,897.61,112.16Z"/><line class="cls-1" x1="426.92" y1="168.26" x2="426.54" y2="175.56"/><path class="cls-2" d="M189.41,121.76A137,137,0,0,0,48.23,29.42l-1.71.36c-1.69.18-3.4.38-5.06.64A120.5,120.5,0,0,0,1.33,43.94L0,44.68V74.12L3.78,72c3.35-1.84,6.83-3.53,10.4-5.06a112.34,112.34,0,0,1,28.32-8,113.63,113.63,0,0,1,79.39,17.54,108.45,108.45,0,0,1,35,39.94,99.82,99.82,0,0,1,5.88,13.73A107.18,107.18,0,0,1,167.94,155a105.48,105.48,0,0,1-.2,21.47,40.75,40.75,0,0,0-20.37-9.79,41.74,41.74,0,0,0-6.29-.66c-.69,0-1.35,0-2,0-8.2-5.92-24-14.23-42.5-7.92-14.21,4.86-27.48,17.41-39.44,37.26-1.53,2.48-3.06,5.17-4.83,8.46l-1.94,3.61,4.11.15A134.51,134.51,0,0,1,72,209.63C84.93,212,95.69,215.94,103.15,221a21.52,21.52,0,0,0,3.91,2.09c8.79,3.76,19.73,1.94,30-5,9.38-6.34,16.12-15.7,18.09-24.64a17.54,17.54,0,0,1,2.38,6.7,19.94,19.94,0,0,1,0,6c-.76,5.93-3.7,12.7-8.76,20.14l-.62,1a50.62,50.62,0,0,1-13.31,12.37l-.18.1a65.78,65.78,0,0,1-15.49,7.11c-1.56.48-3.12.89-4.7,1.27A66.18,66.18,0,0,1,64.87,127.33l.35-.18.11-.1c.81-.54,1.56-1,2.27-1.48a23.37,23.37,0,0,1,8.64-4l1.92-.54a27,27,0,0,1,7.31-1.35l6.87-.31c1.07,0,2.2,0,3.3,0,6.21.23,12.83.87,19,3.71l4.55,2.71-3.68-27.45-1.23-.62a59.47,59.47,0,0,0-20.91-5.64,2.75,2.75,0,0,0-1.22,0C91.11,92.06,90,92,89,92H88.4c-7.38,0-12.26,0-19.24,2.53l-2.76.81-3.78,1.69C41.71,105.45,24.08,122.65,14,144.45A94.13,94.13,0,0,0,83.29,276.33c.87.18,1.77.31,2.66.44l1.28.2a92.71,92.71,0,0,0,29.14-.71A90.39,90.39,0,0,0,130,272.73a94.09,94.09,0,0,0,37-23.44v28.5h29.77V168.71c0-1.74,0-3.53,0-5.29v-.92C197.18,150.46,194.9,137.86,189.41,121.76ZM132.13,203a7.41,7.41,0,0,1-.79.28l-.46.16c-7.79,2.65-16.38,2.27-25.61-1.13a59.62,59.62,0,0,0,6.62.46h.56c15.08,0,26.28-6.39,32.62-18.53a33.43,33.43,0,0,1,5.16,3.56C148.29,190.82,142.28,199.1,132.13,203Z"/><path class="cls-1" d="M502.43,266.73l-1.14-5.5h-.38c-4,4.86-9.77,6.8-16,6.83-11.63.05-19.19-8.63-19.24-19-.07-16.38,14.65-23.48,33.3-23.62v-.73c0-2.76-2.28-5.42-9.45-5.39a33.7,33.7,0,0,0-16.05,4.38L469.66,210c3.84-2.07,12.23-5.41,23.93-5.46,21.08-.1,26.83,12.6,26.89,26.79l.1,20.76a84.57,84.57,0,0,0,1,14.6Zm-2.72-28.18c-8.06.1-13.36,2.55-13.34,8.22,0,4.3,2.74,6.27,6,6.26a7.61,7.61,0,0,0,7.05-5.07,10.61,10.61,0,0,0,.3-2.93Z"/><path class="cls-1" d="M586.08,205.32c-.28,4.51-.51,10.23-.47,19l.16,33.87c.05,11.06-2.19,20.4-8.93,26.43-6.31,5.48-14.83,7.41-24.43,7.45-7.59,0-15.21-1.32-20.64-3.93l3.86-16.22a36,36,0,0,0,15.84,3.78c8.11,0,13.23-4.79,13.19-13.66v-2.67h-.25c-3.19,4.33-8.31,6.47-13.83,6.5-15,.06-23.89-13.09-24-29.43-.08-19.29,11.14-32.17,25.57-32.24,6.44,0,11.3,2.53,14.39,7.54h.25l.76-6.35Zm-21.82,24.62a14.24,14.24,0,0,0-.44-3.36c-.89-3.67-3.37-5.81-6.67-5.8-5.34,0-9.07,5.86-9,15.21,0,8.38,3.45,14,9,14a6.81,6.81,0,0,0,6.61-5,15.84,15.84,0,0,0,.52-4.6Z"/><path class="cls-1" d="M594.2,225.54c0-8.73-.25-14.83-.59-20.25l18.32-.08.91,10.31h.5c3.13-8.53,10-11.61,14.86-11.63a17.41,17.41,0,0,1,4.35.36l.09,20.35a24.17,24.17,0,0,0-5.26-.49c-5.29,0-9.8,2.28-11.23,7.52a18.38,18.38,0,0,0-.46,4.57l.13,30-21.44.1Z"/><path class="cls-1" d="M694,234.85c.11,23.37-15.56,32.34-30.27,32.41-17.63.08-30.2-11.63-30.29-31.25-.09-20.08,12.47-32.21,30.84-32.29C682.47,203.64,694,216.49,694,234.85Zm-38.72.62c0,9.57,2.66,16.45,8.88,16.42,5.4,0,8-7,8-16.5,0-8.32-2.36-16.33-8.27-16.3C657.33,219.12,655.27,227.47,655.31,235.47Z"/><path class="cls-1" d="M704,265.82l-.23-51.72-8.44,0,0-8.31,8.43,0v-2.85c0-8.44,1.79-16.14,6.85-21a20.9,20.9,0,0,1,14.61-5.64,25.21,25.21,0,0,1,9.31,1.69L733,186.43a16.45,16.45,0,0,0-6.95-1.33c-9.3,0-11.62,8.24-11.58,17.42v3.22l14.51-.06,0,8.31-14.51.06.23,51.73Z"/><path class="cls-1" d="M787.57,234.94c.1,22.2-15.24,31.94-29.75,32-16.25.07-28.83-11.78-28.91-30.76-.09-20.09,13-31.94,29.62-32C775.77,204.1,787.49,216.58,787.57,234.94Zm-47.63.83c.06,13.15,7.67,23,18.34,23,10.42-.05,18.19-9.88,18.13-23.4,0-10.17-5.19-23.05-18.09-23S739.89,224.36,739.94,235.77Z"/><path class="cls-1" d="M851.57,234.65c.1,22.2-15.23,32-29.75,32-16.25.07-28.83-11.78-28.91-30.76-.09-20.09,13-31.93,29.62-32C839.78,203.82,851.49,216.29,851.57,234.65Zm-47.62.83c.06,13.15,7.67,23,18.33,23,10.42,0,18.19-9.88,18.13-23.4,0-10.17-5.19-23-18.09-23S803.9,224.07,804,235.48Z"/><path class="cls-1" d="M912.84,176.82l.33,72.56c0,5.34.17,11.41.56,15.5l-9.8.05-.54-10.42h-.25c-3.32,6.72-10.61,11.83-20.41,11.88-14.51.06-25.73-12.17-25.81-30.4-.22-20,12.13-32.31,26.77-32.37,9.18,0,15.4,4.27,18.15,9.1h.25l-.16-35.85Zm-10.68,52.52a19.36,19.36,0,0,0-.52-4.59,16,16,0,0,0-15.81-12.58c-11.28.05-17.94,10-17.88,23.27.06,12.16,6.06,22.18,17.84,22.13,7.32,0,14-4.9,15.94-13.1a19.09,19.09,0,0,0,.48-4.71Z"/><path class="cls-1" d="M925.71,253.67a28.61,28.61,0,0,0,14.41,4.27c7.94,0,11.64-4,11.62-9,0-5.21-3.13-8.05-11.21-11-10.81-3.79-15.92-9.73-15.95-16.92-.05-9.67,7.73-17.65,20.63-17.71A30,30,0,0,1,960,207L957.3,215a23.43,23.43,0,0,0-12.3-3.42c-6.45,0-10,3.77-10,8.23,0,5,3.63,7.18,11.46,10.12,10.43,3.92,15.79,9.11,15.83,18,.05,10.55-8.1,18-22.37,18.09A34.28,34.28,0,0,1,923,262Z"/></g></g></svg>