<svg xmlns="http://www.w3.org/2000/svg" xmlns:xlink="http://www.w3.org/1999/xlink" viewBox="0 0 922.72 181.66"><defs><style>.cls-1{fill:#009245;}.cls-2{fill:url(#linear-gradient);}</style><linearGradient id="linear-gradient" y1="90.83" x2="143.66" y2="90.83" gradientUnits="userSpaceOnUse"><stop offset="0" stop-color="#39b54a"/><stop offset="0.04" stop-color="#25a948"/><stop offset="0.08" stop-color="#149f47"/><stop offset="0.14" stop-color="#099746"/><stop offset="0.22" stop-color="#029345"/><stop offset="0.43" stop-color="#009245"/><stop offset="0.72" stop-color="#029345"/><stop offset="0.82" stop-color="#099746"/><stop offset="0.89" stop-color="#149f47"/><stop offset="0.95" stop-color="#25a948"/><stop offset="1" stop-color="#39b54a"/></linearGradient></defs><g id="Layer_2" data-name="Layer 2"><g id="Layer_1-2" data-name="Layer 1"><path class="cls-1" d="M238.29,135.56l-1.72-8.43H236c-6.21,7.42-15,10.35-24.56,10.35-17.82,0-29.34-13.35-29.34-29.27,0-25.08,22.6-35.86,51.17-35.95V71.15c0-4.23-3.45-8.32-14.45-8.32a51.62,51.62,0,0,0-24.61,6.59l-5.73-21.06c5.9-3.14,18.78-8.2,36.7-8.2,32.29,0,41,19.49,41,41.23v31.8c0,8.8.48,17.11,1.52,22.37Zm-4-43.18c-12.34.1-20.48,3.81-20.48,12.5,0,6.58,4.15,9.62,9.17,9.62a11.65,11.65,0,0,0,10.84-7.7,16.42,16.42,0,0,0,.47-4.5Z"/><path class="cls-1" d="M366.84,42.08c-.47,6.9-.85,15.66-.85,29.13v51.87c0,17-3.49,31.23-13.85,40.43-9.71,8.34-22.76,11.25-37.47,11.25-11.63,0-23.29-2.13-31.6-6.17l6-24.81a55.42,55.42,0,0,0,24.24,5.89c12.42,0,20.3-7.24,20.3-20.84v-4.09h-.38c-4.93,6.62-12.78,9.86-21.23,9.86-22.9,0-36.51-20.21-36.51-45.24,0-29.54,17.28-49.2,39.38-49.2,9.86,0,17.3,4,22,11.64h.38l1.22-9.72Zm-33.6,37.55a21.76,21.76,0,0,0-.64-5.14c-1.35-5.64-5.13-8.93-10.19-8.93-8.17,0-13.92,8.91-13.92,23.23,0,12.83,5.19,21.51,13.75,21.51a10.46,10.46,0,0,0,10.17-7.68,24.47,24.47,0,0,0,.83-7Z"/><path class="cls-1" d="M379.13,73.1c0-13.37-.28-22.72-.76-31h28.06l1.32,15.79h.77c4.85-13,15.36-17.71,22.83-17.71a27.11,27.11,0,0,1,6.67.57V71.9a37.44,37.44,0,0,0-8-.78c-8.11,0-15,3.42-17.27,11.44a28.75,28.75,0,0,0-.73,7v46H379.13Z"/><path class="cls-1" d="M532,88c0,35.8-24.06,49.44-46.59,49.44-27,0-46.19-18-46.19-48.08,0-30.76,19.32-49.24,47.47-49.24C514.48,40.16,532,59.92,532,88Zm-59.32.69c0,14.65,4,25.21,13.49,25.21,8.28,0,12.37-10.72,12.37-25.21,0-12.75-3.49-25-12.55-25C475.87,63.69,472.66,76.48,472.66,88.73Z"/><path class="cls-1" d="M559.91,1.75v50h.37a23.86,23.86,0,0,1,12.37-11.71,46.16,46.16,0,0,1,18.56-3.66,43.82,43.82,0,0,1,19.58,4.12,40,40,0,0,1,13.87,11.15A49.53,49.53,0,0,1,633,67.9a66.48,66.48,0,0,1,2.81,19.5,68.4,68.4,0,0,1-2.72,19.49,45.94,45.94,0,0,1-8.24,16A39,39,0,0,1,611,133.68a44.92,44.92,0,0,1-19.4,3.94,47.78,47.78,0,0,1-8-.75,43.8,43.8,0,0,1-8.72-2.44,33.81,33.81,0,0,1-8.15-4.59,25.65,25.65,0,0,1-6.47-7.21h-.37v12.93H544V1.75Zm57.25,71.31a35.94,35.94,0,0,0-5.43-11.53,26.72,26.72,0,0,0-9.37-8.06,28.6,28.6,0,0,0-13.4-3A26.3,26.3,0,0,0,566.09,62a35,35,0,0,0-5.15,11.71,56.89,56.89,0,0,0,.09,27.08,34.36,34.36,0,0,0,5.34,11.72,27.29,27.29,0,0,0,9.47,8.15,29.57,29.57,0,0,0,14,3.09q8.25,0,13.78-3.18a25.72,25.72,0,0,0,8.9-8.44,36.56,36.56,0,0,0,4.87-12,63.72,63.72,0,0,0,1.5-13.87A49.39,49.39,0,0,0,617.16,73.06Z"/><path class="cls-1" d="M739.63,135.18q-4.12,2.44-11.43,2.44-6.19,0-9.84-3.47t-3.66-11.34a38,38,0,0,1-15.27,11.34,52.73,52.73,0,0,1-31.3,2,29,29,0,0,1-10.21-4.68,22.55,22.55,0,0,1-6.84-8.34,28,28,0,0,1-2.53-12.47q0-8.23,2.81-13.49a24.62,24.62,0,0,1,7.4-8.53,33.92,33.92,0,0,1,10.5-5,123.7,123.7,0,0,1,12.09-2.81q6.55-1.32,12.46-2A68.88,68.88,0,0,0,704.21,77a17.19,17.19,0,0,0,7.12-3.56Q714,71.09,714,66.59a15.94,15.94,0,0,0-2-8.43,13.55,13.55,0,0,0-5.06-4.87A20.45,20.45,0,0,0,700,51a51.61,51.61,0,0,0-7.59-.56q-10.11,0-16.86,3.84t-7.31,14.52H652.3a34.41,34.41,0,0,1,3.75-15.18,28.3,28.3,0,0,1,9-10,37.71,37.71,0,0,1,12.84-5.53,67.46,67.46,0,0,1,15.46-1.69,89.9,89.9,0,0,1,13,.94,34.12,34.12,0,0,1,11.72,3.83,22.53,22.53,0,0,1,8.43,8.14q3.18,5.24,3.19,13.64v49.75a37.08,37.08,0,0,0,.65,8.23q.66,2.61,4.41,2.61a18.91,18.91,0,0,0,4.87-.75ZM713.77,85.52a20.05,20.05,0,0,1-7.87,3.27q-4.87,1-10.22,1.67T684.91,92a39.85,39.85,0,0,0-9.75,2.7,17.7,17.7,0,0,0-7,5.31q-2.71,3.47-2.71,9.42A12.85,12.85,0,0,0,667,116a13.24,13.24,0,0,0,4.12,4.39,17.63,17.63,0,0,0,5.91,2.42,32.67,32.67,0,0,0,7.12.74,37.92,37.92,0,0,0,13.49-2.14,28.26,28.26,0,0,0,9.18-5.41,21.35,21.35,0,0,0,5.25-7.08,18,18,0,0,0,1.69-7.18Z"/><path class="cls-1" d="M791.73,148.49a102.38,102.38,0,0,1-5.53,12,33.15,33.15,0,0,1-6,8,20.43,20.43,0,0,1-7.31,4.5,28.34,28.34,0,0,1-9.28,1.4A42.54,42.54,0,0,1,758,174a26.91,26.91,0,0,1-5.43-1.32V158.05a27,27,0,0,0,4.78,1.59,20,20,0,0,0,4.59.66,13.68,13.68,0,0,0,8.15-2.35,14.42,14.42,0,0,0,5-6.65l6.56-16.3L743.19,38.67h18l28.3,79.27h.37L817,38.67h16.86Z"/><path class="cls-1" d="M858.82,113.91a16.83,16.83,0,0,0,5.9,5.81,26.33,26.33,0,0,0,8.25,3.09,46.77,46.77,0,0,0,9.46.94,59.09,59.09,0,0,0,7.87-.56,29,29,0,0,0,7.59-2.06,14.27,14.27,0,0,0,5.72-4.41,11.71,11.71,0,0,0,2.25-7.4,10.63,10.63,0,0,0-4.69-9.37,39.92,39.92,0,0,0-11.71-5.15q-7-2-15.28-3.56a78.87,78.87,0,0,1-15.27-4.5,31.64,31.64,0,0,1-11.71-8.15q-4.69-5.25-4.69-14.62a23.21,23.21,0,0,1,3.28-12.56,26.83,26.83,0,0,1,8.44-8.52A38.73,38.73,0,0,1,865.84,38a53.61,53.61,0,0,1,12.84-1.59,76.23,76.23,0,0,1,15.18,1.41,35,35,0,0,1,12.28,4.87,25.13,25.13,0,0,1,8.52,9.37,35.4,35.4,0,0,1,3.75,14.71H902.48A15.21,15.21,0,0,0,894.8,54a23.86,23.86,0,0,0-7-2.72,36.28,36.28,0,0,0-7.78-.84,46.65,46.65,0,0,0-7.21.56,23.88,23.88,0,0,0-6.65,2,13.35,13.35,0,0,0-4.88,3.74,9.48,9.48,0,0,0-1.87,6.09,9,9,0,0,0,2.9,6.85,23.14,23.14,0,0,0,7.41,4.49,64,64,0,0,0,10.12,3q5.61,1.23,11.24,2.53a120.73,120.73,0,0,1,11.71,3.19,38.16,38.16,0,0,1,10.12,5A24.22,24.22,0,0,1,920,95.64a22.89,22.89,0,0,1,2.72,11.62q0,8.8-3.65,14.62a28.65,28.65,0,0,1-9.56,9.37,39.89,39.89,0,0,1-13.31,5,78.44,78.44,0,0,1-14.71,1.41,67.77,67.77,0,0,1-15.36-1.69,37.45,37.45,0,0,1-12.94-5.53,28.13,28.13,0,0,1-9-10.12A35,35,0,0,1,840.45,105h15.93A17.84,17.84,0,0,0,858.82,113.91Z"/><path class="cls-2" d="M138.26,67.76A100,100,0,0,0,35.2.36L34,.62c-1.23.13-2.48.28-3.69.47A86.84,86.84,0,0,0,9.79,6.74,88.6,88.6,0,0,0,1,11L0,11.5V33l2.76-1.55c2.45-1.34,5-2.58,7.59-3.69A81.84,81.84,0,0,1,31,21.89,82.87,82.87,0,0,1,89,34.69a79,79,0,0,1,25.52,29.16,72.19,72.19,0,0,1,4.3,10A78.64,78.64,0,0,1,122.59,92a76.67,76.67,0,0,1-.15,15.67,29.75,29.75,0,0,0-14.87-7.15,29.2,29.2,0,0,0-4.59-.48c-.5,0-1,0-1.47,0-6-4.33-17.54-10.39-31-5.78C60.11,97.8,50.43,107,41.7,121.46c-1.12,1.81-2.24,3.76-3.53,6.17l-1.42,2.63,3,.11a99.67,99.67,0,0,1,12.81,1.53c9.43,1.74,17.28,4.61,22.73,8.29a15.56,15.56,0,0,0,2.85,1.53c6.42,2.74,14.4,1.41,21.9-3.64,6.85-4.63,11.78-11.46,13.21-18A12.76,12.76,0,0,1,115,125a15.2,15.2,0,0,1,0,4.37c-.56,4.33-2.71,9.27-6.4,14.7l-.45.75a37.06,37.06,0,0,1-9.72,9l-.13.07A48.11,48.11,0,0,1,87,159.09c-1.13.35-2.27.65-3.43.93A48.31,48.31,0,0,1,47.35,71.83l.26-.13.08-.08,1.66-1.08a17.09,17.09,0,0,1,6.3-2.91l1.4-.39a19.94,19.94,0,0,1,5.34-1l5-.22c.78,0,1.6,0,2.4,0,4.54.17,9.37.63,13.9,2.7l3.32,2-2.68-20-.9-.44A43.55,43.55,0,0,0,68.19,46.1a2.28,2.28,0,0,0-.9,0c-.78,0-1.56-.07-2.33,0h-.43c-5.39,0-9,0-14.05,1.84l-2,.6-2.76,1.23C30.45,55.86,17.57,68.42,10.24,84.33A68.74,68.74,0,0,0,60.8,180.6c.64.13,1.29.22,1.94.31l.93.15a67.69,67.69,0,0,0,21.27-.52A66.27,66.27,0,0,0,94.87,178a68.87,68.87,0,0,0,27-17.11v20.8h21.74V102c0-1.26,0-2.57,0-3.86V97.5C143.93,88.71,142.27,79.52,138.26,67.76ZM96.45,127.05c-.18.08-.39.15-.57.21l-.34.11c-5.69,1.94-12,1.66-18.69-.82a44.63,44.63,0,0,0,4.83.34h.41c11,0,19.18-4.67,23.8-13.53a24.22,24.22,0,0,1,3.77,2.59C108.24,118.17,103.86,124.22,96.45,127.05Z"/></g></g></svg>