<svg xmlns="http://www.w3.org/2000/svg" xmlns:xlink="http://www.w3.org/1999/xlink" viewBox="0 0 151.38 191.43"><defs><style>.cls-1{fill:url(#linear-gradient);}</style><linearGradient id="linear-gradient" y1="95.71" x2="151.38" y2="95.71" gradientUnits="userSpaceOnUse"><stop offset="0" stop-color="#39b54a"/><stop offset="0.04" stop-color="#25a948"/><stop offset="0.08" stop-color="#149f47"/><stop offset="0.14" stop-color="#099746"/><stop offset="0.22" stop-color="#029345"/><stop offset="0.43" stop-color="#009245"/><stop offset="0.72" stop-color="#029345"/><stop offset="0.82" stop-color="#099746"/><stop offset="0.89" stop-color="#149f47"/><stop offset="0.95" stop-color="#25a948"/><stop offset="1" stop-color="#39b54a"/></linearGradient></defs><g id="Layer_2" data-name="Layer 2"><g id="Layer_1-2" data-name="Layer 1"><path class="cls-1" d="M145.69,71.41A105.33,105.33,0,0,0,37.1.38L35.78.65c-1.3.14-2.61.3-3.89.49a91.93,91.93,0,0,0-21.57,6A93.91,93.91,0,0,0,1,11.54l-1,.57V34.76l2.91-1.63c2.57-1.42,5.25-2.71,8-3.89a86.46,86.46,0,0,1,21.78-6.18A87.43,87.43,0,0,1,93.75,36.55a83.37,83.37,0,0,1,26.9,30.73,76.79,76.79,0,0,1,4.52,10.55,82.74,82.74,0,0,1,4,19.13,81.4,81.4,0,0,1-.16,16.52A31.29,31.29,0,0,0,113.36,106a30.27,30.27,0,0,0-4.84-.51c-.53,0-1,0-1.55,0-6.31-4.57-18.48-11-32.7-6.1C63.34,103.06,53.14,112.71,43.94,128c-1.18,1.91-2.36,4-3.72,6.51l-1.49,2.77,3.16.12A105.06,105.06,0,0,1,55.4,139c9.93,1.83,18.2,4.86,23.94,8.73a16.39,16.39,0,0,0,3,1.61c6.77,2.89,15.18,1.5,23.08-3.83,7.22-4.87,12.41-12.07,13.92-19a13.6,13.6,0,0,1,1.83,5.15,15.38,15.38,0,0,1,0,4.6c-.59,4.56-2.85,9.77-6.74,15.49l-.48.79a38.87,38.87,0,0,1-10.24,9.51l-.14.08a50.46,50.46,0,0,1-11.91,5.47c-1.2.37-2.4.69-3.62,1A50.91,50.91,0,0,1,49.9,75.69l.27-.14.08-.08L52,74.33a18,18,0,0,1,6.64-3.06l1.48-.42a21.24,21.24,0,0,1,5.62-1L71,69.58c.82,0,1.69,0,2.53,0,4.78.17,9.87.67,14.65,2.85l3.5,2.08L88.88,53.4l-.94-.47a45.75,45.75,0,0,0-16.09-4.35,2.12,2.12,0,0,0-.94,0c-.82,0-1.65-.08-2.46-.06H68c-5.68,0-9.44,0-14.8,2l-2.13.63-2.9,1.29C32.08,58.86,18.52,72.09,10.79,88.86a72.24,72.24,0,0,0,32.66,94.48,71.34,71.34,0,0,0,20.62,7c.67.14,1.36.24,2,.34l1,.16a71.62,71.62,0,0,0,22.41-.55A68.89,68.89,0,0,0,100,187.53a72.39,72.39,0,0,0,28.46-18v21.92h22.91v-83.9c0-1.34,0-2.71,0-4.07v-.71C151.67,93.48,149.92,83.79,145.69,71.41Zm-44,62.47c-.2.08-.41.16-.61.22l-.36.12c-6,2-12.6,1.75-19.69-.87a46.9,46.9,0,0,0,5.09.36h.43c11.6,0,20.21-4.92,25.09-14.26a25.66,25.66,0,0,1,4,2.74C114.06,124.52,109.44,130.89,101.64,133.88Z"/></g></g></svg>